<svg width="60" height="61" viewBox="0 0 60 61" fill="none" xmlns="http://www.w3.org/2000/svg">
<g clip-path="url(#clip0_2103_2513)">
<g clip-path="url(#clip1_2103_2513)">
<path fill-rule="evenodd" clip-rule="evenodd" d="M28.4148 55.342C28.7575 55.8876 29.3575 56.2203 30.0027 56.2203C30.648 56.2203 31.248 55.8876 31.5907 55.342C36.6657 47.2503 52.3598 22.226 55.962 16.4823C56.4015 15.7808 56.3293 14.8738 55.7832 14.2502C53.7176 11.8927 48.7626 6.23456 47.0925 4.3276C46.7363 3.92264 46.2221 3.68879 45.6821 3.68879C41.0552 3.68879 18.9503 3.68879 14.3234 3.68879C13.7834 3.68879 13.2692 3.92264 12.9129 4.3276C11.2429 6.23456 6.28782 11.8927 4.22229 14.2502C3.67622 14.8738 3.60398 15.7808 4.04354 16.4823C7.64564 22.226 23.3397 47.2503 28.4148 55.342Z" fill="#FDF0EA"/>
<path fill-rule="evenodd" clip-rule="evenodd" d="M3.83838 15.3174H56.192C56.1157 15.0674 55.987 14.831 55.8068 14.6247C53.7408 12.2673 48.782 6.60812 47.1113 4.70091C46.7561 4.29446 46.2408 4.06186 45.7006 4.06186C41.0732 4.06186 18.9572 4.06186 14.3299 4.06186C13.7896 4.06186 13.2744 4.29446 12.9192 4.70091C11.2483 6.60812 6.28959 12.2673 4.22357 14.6247C4.04348 14.831 3.91466 15.0674 3.83838 15.3174Z" fill="white"/>
<path fill-rule="evenodd" clip-rule="evenodd" d="M22.5112 15.3174L30.015 4.06186H14.3296C14.1508 4.06186 13.9745 4.08687 13.8057 4.1369L22.5112 15.3174ZM30.015 4.06186L37.5187 15.3174L46.2243 4.1369C46.0555 4.08687 45.8791 4.06186 45.7003 4.06186H30.015Z" fill="#FDF0EA"/>
<path fill-rule="evenodd" clip-rule="evenodd" d="M37.5187 15.3174H22.5112L30.015 4.06186L37.5187 15.3174Z" fill="white"/>
<path fill-rule="evenodd" clip-rule="evenodd" d="M30.015 56.6031L22.5112 15.3174H37.5187L30.015 56.6031Z" fill="white"/>
<path fill-rule="evenodd" clip-rule="evenodd" d="M15.0047 49.1218L16.4855 51.3938L18.7573 52.8744L16.4855 54.3539L15.0047 56.6258L13.5253 54.3539L11.2534 52.8744L13.5253 51.3938L15.0047 49.1218Z" fill="#FDF0EA"/>
<path fill-rule="evenodd" clip-rule="evenodd" d="M7.50474 34.1218L8.98551 36.3938L11.2574 37.8744L8.98551 39.3539L7.50474 41.6258L6.02527 39.3539L3.75342 37.8744L6.02527 36.3938L7.50474 34.1218Z" fill="#FDF0EA"/>
<path fill-rule="evenodd" clip-rule="evenodd" d="M51.2542 40.3713L52.735 42.6431L55.0069 44.1239L52.735 45.6034L51.2542 47.8752L49.7748 45.6034L47.5029 44.1239L49.7748 42.6431L51.2542 40.3713Z" fill="#FDF0EA"/>
<path d="M23.1339 48.2744C23.8247 48.2744 24.3846 47.7144 24.3846 47.0237C24.3846 46.333 23.8247 45.7731 23.1339 45.7731C22.4432 45.7731 21.8833 46.333 21.8833 47.0237C21.8833 47.7144 22.4432 48.2744 23.1339 48.2744Z" fill="#EB662B"/>
<path fill-rule="evenodd" clip-rule="evenodd" d="M5.33888 16.5681H21.4757L28.513 53.5103L26.3168 50.0098C25.9505 49.4246 25.1776 49.2483 24.5935 49.6147C24.0082 49.9811 23.8319 50.7539 24.1984 51.338C24.1984 51.338 26.552 55.0911 27.3661 56.3893C27.9377 57.301 28.9381 57.8537 30.015 57.8537C31.0918 57.8537 32.0922 57.301 32.6638 56.3893L57.0448 17.5223C57.7788 16.353 57.6575 14.8397 56.747 13.8005C54.681 11.4431 49.7236 5.78397 48.0527 3.87678C47.4587 3.20018 46.602 2.81126 45.7003 2.81126H14.3297C13.4279 2.81126 12.5712 3.20018 11.9772 3.87678C10.3064 5.78397 5.34889 11.4431 3.28285 13.8005C2.3724 14.8397 2.25109 16.353 2.9852 17.5223L20.0624 44.746C20.4301 45.3313 21.2018 45.5075 21.7871 45.1412C22.3711 44.7747 22.5487 44.0019 22.1822 43.4178L5.33888 16.5681ZM53.6555 14.0669L46.4657 5.86153L40.0775 14.0669H48.7744C49.4647 14.0669 50.025 14.6272 50.025 15.3176C50.025 16.0078 49.4647 16.5681 48.7744 16.5681H38.5542L31.5169 53.5103L54.6911 16.5681H52.5262C51.8359 16.5681 51.2756 16.0078 51.2756 15.3176C51.2756 14.6272 51.8359 14.0669 52.5262 14.0669H53.6555ZM36.0079 16.5681H24.022L30.015 48.0288L36.0079 16.5681ZM6.3744 14.0669H19.9524L13.5642 5.86153L6.3744 14.0669ZM24.8486 14.0669H35.1812L30.015 6.31677L24.8486 14.0669ZM43.7231 5.31251H32.3524L37.5976 13.1801L43.7231 5.31251ZM27.6775 5.31251H16.3069L22.4324 13.1801L27.6775 5.31251Z" fill="#EB662B"/>
<path fill-rule="evenodd" clip-rule="evenodd" d="M16.0527 48.4388C15.8224 48.0846 15.4288 47.8714 15.005 47.8714C14.5825 47.8714 14.189 48.0846 13.9573 48.4388L12.6213 50.4894L10.5706 51.8268C10.2165 52.0571 10.002 52.4507 10.002 52.8746C10.002 53.2971 10.2165 53.6906 10.5706 53.9223L12.6213 55.2582L13.9573 57.309C14.189 57.663 14.5825 57.8776 15.005 57.8776C15.4288 57.8776 15.8224 57.663 16.0527 57.309L17.3901 55.2582L19.4408 53.9223C19.7949 53.6906 20.008 53.2971 20.008 52.8746C20.008 52.4507 19.7949 52.0571 19.4408 51.8268L17.3901 50.4894L16.0527 48.4388ZM15.005 51.4121L15.4381 52.0769C15.5329 52.2216 15.6579 52.3467 15.8026 52.4415L16.4674 52.8746L15.8026 53.3062C15.6579 53.401 15.5329 53.526 15.4381 53.6722L15.005 54.3356L14.5732 53.6722C14.4786 53.526 14.3535 53.401 14.2074 53.3062L13.544 52.8746L14.2074 52.4415C14.3535 52.3467 14.4786 52.2216 14.5732 52.0769L15.005 51.4121Z" fill="#EB662B"/>
<path fill-rule="evenodd" clip-rule="evenodd" d="M8.55275 33.4388C8.32241 33.0846 7.92886 32.8714 7.50502 32.8714C7.08251 32.8714 6.68895 33.0846 6.45729 33.4388L5.12129 35.4894L3.07057 36.8268C2.7165 37.0571 2.50195 37.4507 2.50195 37.8746C2.50195 38.2971 2.7165 38.6906 3.07057 38.9223L5.12129 40.2582L6.45729 42.309C6.68895 42.663 7.08251 42.8776 7.50502 42.8776C7.92886 42.8776 8.32241 42.663 8.55275 42.309L9.89006 40.2582L11.9408 38.9223C12.2949 38.6906 12.508 38.2971 12.508 37.8746C12.508 37.4507 12.2949 37.0571 11.9408 36.8268L9.89006 35.4894L8.55275 33.4388ZM7.50502 36.4121L7.93806 37.0769C8.03284 37.2216 8.15788 37.3467 8.30267 37.4415L8.96737 37.8746L8.30267 38.3062C8.15788 38.401 8.03284 38.526 7.93806 38.6722L7.50502 39.3356L7.07329 38.6722C6.97852 38.526 6.85348 38.401 6.70738 38.3062L6.04398 37.8746L6.70738 37.4415C6.85348 37.3467 6.97852 37.2216 7.07329 37.0769L7.50502 36.4121Z" fill="#EB662B"/>
<path fill-rule="evenodd" clip-rule="evenodd" d="M52.3023 39.6881C52.0719 39.334 51.6783 39.1208 51.2545 39.1208C50.832 39.1208 50.4385 39.334 50.2068 39.6881L48.8708 41.7388L46.8201 43.0761C46.466 43.3065 46.2515 43.7001 46.2515 44.1239C46.2515 44.5464 46.466 44.9399 46.8201 45.1716L48.8708 46.5076L50.2068 48.5583C50.4385 48.9124 50.832 49.127 51.2545 49.127C51.6783 49.127 52.0719 48.9124 52.3023 48.5583L53.6396 46.5076L55.6903 45.1716C56.0444 44.9399 56.2577 44.5464 56.2577 44.1239C56.2577 43.7001 56.0444 43.3065 55.6903 43.0761L53.6396 41.7388L52.3023 39.6881ZM51.2545 42.6615L51.6876 43.3262C51.7824 43.471 51.9074 43.596 52.0523 43.6908L52.7169 44.1239L52.0523 44.5556C51.9074 44.6504 51.7824 44.7754 51.6876 44.9216L51.2545 45.5849L50.8229 44.9216C50.7281 44.7754 50.603 44.6504 50.4569 44.5556L49.7935 44.1239L50.4569 43.6908C50.603 43.596 50.7281 43.471 50.8229 43.3262L51.2545 42.6615Z" fill="#EB662B"/>
</g>
</g>
<defs>
<clipPath id="clip0_2103_2513">
<rect width="60" height="60" fill="white" transform="translate(0 0.130005)"/>
</clipPath>
<clipPath id="clip1_2103_2513">
<rect width="60" height="60" fill="white" transform="translate(0 0.130005)"/>
</clipPath>
</defs>
</svg>
