<svg width="60" height="61" viewBox="0 0 60 61" fill="none" xmlns="http://www.w3.org/2000/svg">
<g clip-path="url(#clip0_2103_2498)">
<g clip-path="url(#clip1_2103_2498)">
<path fill-rule="evenodd" clip-rule="evenodd" d="M30.06 4.01684C21.0805 4.01684 13.8018 11.2955 13.8018 20.275C13.8106 25.9528 16.7758 31.1729 21.5495 34.1031C22.3148 34.5734 23.119 35.5989 23.2953 36.4793L23.7368 38.6892C23.9219 39.6134 24.7411 40.285 25.6828 40.285H34.4372C35.3789 40.285 36.198 39.6134 36.3831 38.6892L36.8246 36.4793C37.0009 35.5989 37.8051 34.5734 38.5705 34.1044C43.3441 31.1729 46.3093 25.9528 46.3181 20.275C46.3181 11.2955 39.0395 4.01684 30.06 4.01684Z" fill="#FDF0EA"/>
<path fill-rule="evenodd" clip-rule="evenodd" d="M23.647 48.0764L36.4634 48.1414L35.3716 54.6922C35.194 55.7565 34.2648 56.5431 33.1867 56.5431H26.9336C25.8556 56.5431 24.9263 55.7565 24.7487 54.6922L23.647 48.0764Z" fill="white"/>
<path fill-rule="evenodd" clip-rule="evenodd" d="M23.1819 45.2875H36.9387C37.2701 45.2875 37.5891 45.4188 37.8229 45.6539C38.058 45.8878 38.1894 46.2067 38.1894 46.5381V47.7887C38.1894 48.4753 37.6253 49.0393 36.9387 49.0393H23.1819C22.8504 49.0393 22.5315 48.908 22.2977 48.6729C22.0625 48.439 21.9312 48.1201 21.9312 47.7887V46.5381C21.9312 45.8515 22.4953 45.2875 23.1819 45.2875Z" fill="#FDF0EA"/>
<path fill-rule="evenodd" clip-rule="evenodd" d="M30.0599 4.01684C26.9521 4.01684 24.4321 11.2955 24.4321 20.275C24.4346 25.9528 25.4613 31.1729 27.1146 34.1031C27.3785 34.5734 27.6574 35.5989 27.7187 36.4793L27.8713 38.6892C27.9351 39.6134 28.2189 40.285 28.5441 40.285H31.5756C31.9008 40.285 32.1847 39.6134 32.2485 38.6892L32.401 36.4793C32.4623 35.5989 32.7412 34.5734 33.0051 34.1044C34.6584 31.1729 35.6852 25.9528 35.6877 20.275C35.6877 11.2955 33.1677 4.01684 30.0599 4.01684Z" fill="white"/>
<path fill-rule="evenodd" clip-rule="evenodd" d="M11.4731 38.7393C10.7927 38.1427 9.91479 37.7838 8.95556 37.7838C6.79698 37.7838 5.04736 39.6035 5.04736 41.8483C5.04736 44.0932 6.79698 45.9129 8.95556 45.9129H14.427C16.1541 45.9129 17.5536 44.4571 17.5536 42.6612C17.5536 40.8653 16.1541 39.4096 14.427 39.4096C13.7592 39.4096 13.1389 39.6272 12.6311 39.9987L11.4731 38.7393Z" fill="#FDF0EA"/>
<path fill-rule="evenodd" clip-rule="evenodd" d="M51.8247 30.2612C52.3012 29.8435 52.9165 29.5922 53.5881 29.5922C55.0989 29.5922 56.3232 30.8666 56.3232 32.4373C56.3232 34.0081 55.0989 35.2825 53.5881 35.2825H49.7574C48.5493 35.2825 47.5688 34.2632 47.5688 33.0064C47.5688 31.7495 48.5493 30.7302 49.7574 30.7302C50.2252 30.7302 50.6591 30.8828 51.0143 31.1429L51.8247 30.2612Z" fill="white"/>
<path fill-rule="evenodd" clip-rule="evenodd" d="M22.7414 50.2512L23.5156 54.8985C23.7932 56.5619 25.2464 57.7937 26.9335 57.7937H33.1866C34.8737 57.7937 36.327 56.5619 36.6046 54.8985L37.3787 50.25C38.5443 50.0399 39.4398 49.0106 39.4398 47.7887V46.5381C39.4398 45.8753 39.1759 45.2387 38.7069 44.7697C38.2379 44.3007 37.6013 44.0369 36.9385 44.0369H36.3132V40.9328C36.966 40.4676 37.4438 39.7635 37.6089 38.9343L38.0516 36.7245C38.1679 36.1429 38.7194 35.4801 39.2247 35.1699C44.366 32.0134 47.5601 26.3918 47.5688 20.2775V20.275C47.5688 10.6051 39.7299 2.76623 30.0601 2.76623C20.3902 2.76623 12.5513 10.6051 12.5513 20.275V20.2762C12.5526 20.844 12.5801 21.4056 12.6351 21.9633C12.7027 22.6499 13.3142 23.1527 14.0021 23.0851C14.6887 23.0176 15.1914 22.4061 15.1239 21.7182C15.0776 21.2417 15.0538 20.7602 15.0526 20.2737C15.0526 13.3853 19.6936 7.58239 26.0193 5.81776C24.3435 8.82926 23.1816 14.1719 23.1816 20.275V20.2762C23.1854 26.2092 24.2985 31.6557 26.0243 34.7184C26.2307 35.0824 26.4233 35.8828 26.4708 36.5656L26.6234 38.7755C26.6296 38.8643 26.6384 38.9506 26.6471 39.0344H25.6829C25.334 39.0344 25.0313 38.7867 24.9638 38.4441L24.5223 36.2342C24.2859 35.0549 23.2292 33.6679 22.2037 33.0376C20.1339 31.767 18.4318 30.0286 17.2087 28.0001C16.8522 27.4085 16.0818 27.2185 15.4915 27.5749C14.9 27.9313 14.7099 28.7004 15.0663 29.292C16.4933 31.6582 18.4793 33.6867 20.8955 35.1699C21.4007 35.4801 21.9523 36.1429 22.0686 36.7245L22.5113 38.9343C22.6764 39.7635 23.1541 40.4676 23.807 40.9328V44.0369H23.1816C21.8097 44.0369 20.6804 45.1662 20.6804 46.5381V47.7887C20.6804 48.4516 20.9443 49.0881 21.4133 49.5571C21.7772 49.921 22.2412 50.1612 22.7414 50.2512ZM34.8375 50.29H34.396C33.7057 50.29 33.1454 49.7297 33.1454 49.0394C33.1454 48.349 33.7057 47.7887 34.396 47.7887H36.9385V46.6382C36.8585 46.6181 36.7447 46.5381 36.9385 46.5381H23.1816V47.6887C23.2617 47.7087 23.3755 47.7887 23.1816 47.7887H30.3777C31.0668 47.7887 31.6284 48.349 31.6284 49.0394C31.6284 49.7297 31.0668 50.29 30.3777 50.29H25.2827L25.983 54.4871C26.0593 54.9498 26.4645 55.2925 26.9335 55.2925H33.1866C33.6556 55.2925 34.0608 54.9498 34.1371 54.4871L34.8375 50.29ZM28.8095 44.0369V41.5356H26.3082V44.0369H28.8095ZM33.812 44.0369V41.5356H31.3107V44.0369H33.812ZM30.0601 5.26748C30.3865 5.26748 30.6779 5.46509 30.9718 5.74773C31.4395 6.19671 31.8635 6.86202 32.2524 7.68744C33.5931 10.5251 34.4373 15.1086 34.4373 20.275C34.4348 25.6977 33.4943 30.6902 31.916 33.4891C31.5921 34.0656 31.2282 35.3137 31.1544 36.393L31.0005 38.6029C30.9918 38.7405 30.963 38.8968 30.9318 39.0344H29.1884C29.1571 38.8968 29.1284 38.7405 29.1196 38.6029L28.9658 36.393C28.892 35.3137 28.5281 34.0656 28.2042 33.4891C26.6259 30.6902 25.6854 25.6977 25.6829 20.275C25.6829 15.1086 26.5271 10.5251 27.8677 7.68744C28.2567 6.86202 28.6806 6.19671 29.1484 5.74773C29.4423 5.46509 29.7337 5.26748 30.0601 5.26748ZM34.1009 5.81776C35.7767 8.82926 36.9385 14.1719 36.9385 20.275V20.2762C36.936 26.2092 35.8217 31.6557 34.0958 34.7184C33.8895 35.0824 33.6969 35.8828 33.6494 36.5656L33.4968 38.7755C33.4905 38.8643 33.4818 38.9506 33.473 39.0344H34.4373C34.7862 39.0344 35.0888 38.7867 35.1564 38.4441L35.5979 36.2342C35.8342 35.0549 36.891 33.6679 37.9153 33.0376C42.3225 30.3325 45.0588 25.5151 45.0676 20.2737C45.0676 13.3865 40.4265 7.58239 34.1009 5.81776Z" fill="#EB662B"/>
<path fill-rule="evenodd" clip-rule="evenodd" d="M12.3949 37.8938C12.3636 37.86 12.3323 37.8287 12.2986 37.7987C11.3956 37.0083 10.2288 36.5331 8.9557 36.5331C6.12054 36.5331 3.79688 38.8993 3.79688 41.8482C3.79688 44.7972 6.12054 47.1634 8.9557 47.1634H14.4271C16.8308 47.1634 18.8043 45.1611 18.8043 42.6611C18.8043 40.1611 16.8308 38.1589 14.4271 38.1589C13.8894 38.1589 13.3741 38.2589 12.8976 38.4415L12.3949 37.8938ZM10.6027 39.6396L11.7108 40.8452C12.141 41.3142 12.8551 41.3842 13.3691 41.0091C13.6693 40.7902 14.0332 40.6601 14.4271 40.6601C15.4777 40.6601 16.3031 41.5693 16.3031 42.6611C16.3031 43.7529 15.4777 44.6621 14.4271 44.6621H8.9557C7.47371 44.6621 6.29813 43.389 6.29813 41.8482C6.29813 40.3075 7.47371 39.0343 8.9557 39.0343C9.57726 39.0343 10.1488 39.2607 10.599 39.6371L10.6027 39.6396Z" fill="#EB662B"/>
<path fill-rule="evenodd" clip-rule="evenodd" d="M51.0007 29.3208L50.7168 29.6184C50.4129 29.5284 50.0903 29.4796 49.7576 29.4796C47.8717 29.4796 46.3184 31.0454 46.3184 33.0064C46.3184 34.9674 47.8717 36.5331 49.7576 36.5331H53.5883C55.7756 36.5331 57.574 34.7122 57.574 32.4374C57.574 30.1625 55.7756 28.3415 53.5883 28.3415C52.6028 28.3415 51.6986 28.708 51.0007 29.3208ZM52.6966 31.1617C52.9429 30.9629 53.2518 30.8428 53.5883 30.8428C54.4212 30.8428 55.0728 31.5694 55.0728 32.4374C55.0728 33.3053 54.4212 34.0319 53.5883 34.0319H49.7576C49.2261 34.0319 48.8196 33.5592 48.8196 33.0064C48.8196 32.4536 49.2261 31.9809 49.7576 31.9809C49.9514 31.9809 50.1303 32.0446 50.2766 32.1522C50.7906 32.5286 51.5047 32.4574 51.9362 31.9896L52.6928 31.1642L52.6966 31.1617Z" fill="#EB662B"/>
<path d="M14.595 26.4886C15.286 26.4886 15.8461 25.9284 15.8461 25.2374C15.8461 24.5464 15.286 23.9863 14.595 23.9863C13.904 23.9863 13.3438 24.5464 13.3438 25.2374C13.3438 25.9284 13.904 26.4886 14.595 26.4886Z" fill="#EB662B"/>
</g>
</g>
<defs>
<clipPath id="clip0_2103_2498">
<rect width="60" height="60" fill="white" transform="translate(0 0.130005)"/>
</clipPath>
<clipPath id="clip1_2103_2498">
<rect width="60" height="60" fill="white" transform="translate(0 0.130005)"/>
</clipPath>
</defs>
</svg>
