<svg width="60" height="61" viewBox="0 0 60 61" fill="none" xmlns="http://www.w3.org/2000/svg">
<g clip-path="url(#clip0_2103_2489)">
<g clip-path="url(#clip1_2103_2489)">
<path fill-rule="evenodd" clip-rule="evenodd" d="M56.368 31.3117C56.368 32.1259 55.8415 32.8475 55.0661 33.0964C53.2815 33.6279 51.9908 35.2887 51.9908 37.2485C51.9908 39.2082 53.2815 40.869 55.0573 41.4255C55.8215 41.6719 56.3405 42.3823 56.3405 43.1852C56.368 44.0394 56.368 45.1036 56.368 46.0028C56.368 47.0383 55.5276 47.8788 54.4921 47.8788C46.3217 47.8788 13.888 47.8788 5.71774 47.8788C4.68222 47.8788 3.8418 47.0383 3.8418 46.0028C3.8418 45.1036 3.8418 44.0394 3.8418 43.1852C3.8418 42.371 4.36831 41.6494 5.1437 41.4005C6.92834 40.869 8.21899 39.2082 8.21899 37.2485C8.21899 35.2887 6.92835 33.6279 5.15246 33.0714C4.38833 32.825 3.86932 32.1146 3.86932 31.3117C3.8418 30.7114 3.8418 30.0286 3.8418 29.4283C3.8418 28.6141 4.36831 27.8925 5.1437 27.6437C6.92834 27.1121 8.21899 25.4513 8.21899 23.4916C8.21899 21.5318 6.92835 19.871 5.15246 19.3145C4.38833 19.0681 3.86932 18.3577 3.86932 17.5548C3.8418 16.7007 3.8418 15.6364 3.8418 14.7372C3.8418 13.7017 4.68222 12.8613 5.71774 12.8613H54.4921C55.5276 12.8613 56.368 13.7017 56.368 14.7372V17.5548C56.368 18.369 55.8415 19.0906 55.0661 19.3395C53.2815 19.871 51.9908 21.5318 51.9908 23.4916C51.9908 25.4513 53.2815 27.1121 55.0573 27.6687C55.8215 27.915 56.3405 28.6254 56.3405 29.4283C56.368 30.0286 56.368 30.7114 56.368 31.3117Z" fill="#FDF0EA"/>
<path fill-rule="evenodd" clip-rule="evenodd" d="M32.1639 23.7449C32.5091 23.2143 33.1001 22.8947 33.7332 22.8947C34.3664 22.8947 34.9573 23.2143 35.3025 23.7449C35.6357 24.253 35.9568 24.7459 36.195 25.1107C36.4467 25.4951 36.8311 25.774 37.2743 25.8946C37.6949 26.0077 38.2617 26.1615 38.8482 26.3213C39.4602 26.4856 39.9456 26.9484 40.1416 27.5514C40.3376 28.1529 40.2155 28.8131 39.819 29.3061C39.4376 29.7794 39.0683 30.2378 38.7954 30.5769C38.5075 30.9342 38.3612 31.3864 38.3839 31.8462C38.405 32.2804 38.4336 32.8683 38.4637 33.4744C38.4954 34.1075 38.206 34.712 37.6934 35.0844C37.1824 35.4567 36.516 35.5457 35.9251 35.3195C35.3568 35.104 34.8065 34.8944 34.401 34.7391C33.9699 34.5763 33.4965 34.5763 33.0654 34.7391C32.6599 34.8944 32.1096 35.104 31.5413 35.3195C30.9504 35.5457 30.2841 35.4567 29.773 35.0844C29.2605 34.712 28.971 34.1075 29.0027 33.4744C29.0328 32.8683 29.0615 32.2804 29.0826 31.8462C29.1052 31.3864 28.959 30.9342 28.671 30.5769C28.3982 30.2378 28.0288 29.7794 27.6474 29.3061C27.251 28.8131 27.1288 28.1529 27.3248 27.5514C27.5208 26.9484 28.0062 26.4856 28.6183 26.3213C29.2047 26.1615 29.7715 26.0077 30.1921 25.8946C30.6353 25.774 31.0197 25.4951 31.2715 25.1107C31.5097 24.7459 31.8307 24.253 32.1639 23.7449Z" fill="white"/>
<path fill-rule="evenodd" clip-rule="evenodd" d="M22.6013 46.6282C23.2917 46.6282 23.8519 47.1884 23.8519 47.8788C23.8519 48.5691 23.2917 49.1294 22.6013 49.1294C21.911 49.1294 21.3507 48.5691 21.3507 47.8788C21.3507 47.1884 21.911 46.6282 22.6013 46.6282ZM52.6163 14.1119H54.4922C54.8374 14.1119 55.1176 14.392 55.1176 14.7372V17.5549C55.1176 17.8175 54.9525 18.0514 54.7074 18.1414C52.4049 18.8317 50.7404 20.9678 50.7404 23.4916C50.7404 26.0103 52.4 28.1452 54.6836 28.8618C54.9225 28.9393 55.09 29.1694 55.09 29.4283C55.09 29.4483 55.09 29.4671 55.0913 29.4858C55.1176 30.0674 55.1176 30.7302 55.1176 31.3117C55.1176 31.5744 54.9525 31.8082 54.7074 31.8983C52.4049 32.5886 50.7404 34.7247 50.7404 37.2485C50.7404 39.7672 52.4 41.902 54.6836 42.6187C54.9225 42.6962 55.09 42.9263 55.09 43.1852V43.2265C55.1176 44.0681 55.1176 45.1161 55.1176 46.0028C55.1176 46.348 54.8374 46.6282 54.4922 46.6282H26.3532C25.6628 46.6282 25.1026 47.1884 25.1026 47.8788C25.1026 48.5691 25.6628 49.1294 26.3532 49.1294H54.4922C56.2194 49.1294 57.6188 47.73 57.6188 46.0028C57.6188 45.0949 57.6188 44.0206 57.5913 43.1552C57.5813 41.8257 56.7146 40.6452 55.4402 40.235C55.4377 40.235 55.4352 40.2337 55.4327 40.2324C54.1633 39.8347 53.2416 38.6479 53.2416 37.2485C53.2416 35.8565 54.1546 34.6734 55.4227 34.2957C55.4315 34.2932 55.4402 34.2907 55.449 34.287C56.7421 33.8718 57.6188 32.6699 57.6188 31.3117C57.6188 30.7027 57.6188 30.0098 57.5913 29.3983C57.5775 28.0651 56.7121 26.887 55.4402 26.4781C55.4377 26.4781 55.4352 26.4768 55.4327 26.4756C54.1633 26.0779 53.2416 24.891 53.2416 23.4916C53.2416 22.0996 54.1546 20.9166 55.4227 20.5389C55.4315 20.5364 55.4402 20.5338 55.449 20.5301C56.7421 20.1149 57.6188 18.913 57.6188 17.5549V14.7372C57.6188 13.0101 56.2194 11.6107 54.4922 11.6107H52.6163C51.926 11.6107 51.3657 12.1709 51.3657 12.8613C51.3657 13.5516 51.926 14.1119 52.6163 14.1119ZM17.5988 46.6282V43.4916C17.5988 42.8012 17.0385 42.241 16.3482 42.241C15.6578 42.241 15.0976 42.8012 15.0976 43.4916V46.6282H5.71787C5.3727 46.6282 5.09256 46.348 5.09256 46.0028V43.1852C5.09256 42.9226 5.25764 42.6887 5.50277 42.5987C7.80517 41.9083 9.46975 39.7722 9.46975 37.2485C9.46975 34.7297 7.81017 32.5949 5.52653 31.8783C5.28766 31.8007 5.12008 31.5706 5.12008 31.3117C5.12008 31.2917 5.12007 31.273 5.11882 31.2542C5.09255 30.6727 5.09256 30.0099 5.09256 29.4283C5.09256 29.1657 5.25764 28.9318 5.50277 28.8418C7.80517 28.1514 9.46975 26.0154 9.46975 23.4916C9.46975 20.9728 7.81017 18.838 5.52653 18.1214C5.28766 18.0439 5.12008 17.8137 5.12008 17.5549C5.12008 17.5411 5.12008 17.5274 5.12008 17.5136C5.09256 16.6719 5.09256 15.6239 5.09256 14.7372C5.09256 14.392 5.3727 14.1119 5.71787 14.1119H15.0976V18.4791C15.0976 19.1694 15.6578 19.7297 16.3482 19.7297C17.0385 19.7297 17.5988 19.1694 17.5988 18.4791V14.1119H48.8644C49.5548 14.1119 50.1151 13.5516 50.1151 12.8613C50.1151 12.1709 49.5548 11.6107 48.8644 11.6107C48.8644 11.6107 12.5463 11.6107 5.71787 11.6107C3.99076 11.6107 2.59131 13.0101 2.59131 14.7372C2.59131 15.6452 2.59131 16.7195 2.61883 17.5849C2.62883 18.9143 3.49552 20.0949 4.7699 20.5051C4.7724 20.5051 4.7749 20.5064 4.7774 20.5076C6.04679 20.9053 6.9685 22.0921 6.9685 23.4916C6.9685 24.8835 6.05554 26.0666 4.7874 26.4443C4.77865 26.4468 4.7699 26.4493 4.76114 26.4531C3.468 26.8683 2.59131 28.0701 2.59131 29.4283C2.59131 30.0374 2.59131 30.7302 2.61883 31.3418C2.63258 32.6749 3.49802 33.853 4.7699 34.262C4.7724 34.262 4.7749 34.2632 4.7774 34.2645C6.04679 34.6622 6.9685 35.849 6.9685 37.2485C6.9685 38.6404 6.05554 39.8235 4.7874 40.2012C4.77865 40.2037 4.7699 40.2062 4.76114 40.21C3.468 40.6252 2.59131 41.827 2.59131 43.1852V46.0028C2.59131 47.73 3.99076 49.1294 5.71787 49.1294H18.8494C19.5398 49.1294 20.1001 48.5691 20.1001 47.8788C20.1001 47.1884 19.5398 46.6282 18.8494 46.6282H17.5988ZM15.0976 33.4866V38.4891C15.0976 39.1794 15.6578 39.7397 16.3482 39.7397C17.0385 39.7397 17.5988 39.1794 17.5988 38.4891V33.4866C17.5988 32.7962 17.0385 32.236 16.3482 32.236C15.6578 32.236 15.0976 32.7962 15.0976 33.4866ZM15.0976 23.4816V28.4841C15.0976 29.1744 15.6578 29.7347 16.3482 29.7347C17.0385 29.7347 17.5988 29.1744 17.5988 28.4841V23.4816C17.5988 22.7912 17.0385 22.231 16.3482 22.231C15.6578 22.231 15.0976 22.7912 15.0976 23.4816Z" fill="#EB662B"/>
<path fill-rule="evenodd" clip-rule="evenodd" d="M31.2226 23.2976L30.3297 24.6641C30.2452 24.7923 30.117 24.8858 29.9692 24.925L28.3946 25.3519C27.375 25.6279 26.5651 26.4001 26.2378 27.4046C25.912 28.4076 26.1141 29.5086 26.7762 30.3306L27.8004 31.6021C27.8969 31.7212 27.9452 31.872 27.9376 32.0244L27.8562 33.6548C27.8049 34.709 28.2875 35.7196 29.1412 36.3395C29.9964 36.9594 31.1049 37.1072 32.0913 36.7316L33.6162 36.1509C33.761 36.0966 33.9178 36.0966 34.0611 36.1509L35.5875 36.7316C36.5739 37.1072 37.6824 36.9594 38.5376 36.3395C39.3913 35.7196 39.8739 34.709 39.8226 33.6548L39.7412 32.0244C39.7336 31.872 39.7819 31.7212 39.8784 31.6021L40.9025 30.3306C41.5647 29.5086 41.7668 28.4076 41.441 27.4046C41.1137 26.4001 40.3038 25.6279 39.2842 25.3519L37.7096 24.925C37.5618 24.8858 37.4336 24.7923 37.3491 24.6641L36.4562 23.2976C35.8801 22.4138 34.8952 21.8813 33.8394 21.8813C32.7836 21.8813 31.7987 22.4138 31.2226 23.2976ZM33.316 24.6656C33.4322 24.4891 33.6282 24.3821 33.8394 24.3821C34.0506 24.3821 34.2466 24.4891 34.3628 24.6656L35.2556 26.0321C35.6749 26.6746 36.316 27.1391 37.055 27.3397L38.6311 27.7666C38.8347 27.8224 38.9961 27.9762 39.061 28.1768C39.1273 28.3774 39.0866 28.5976 38.9539 28.762L37.9298 30.0335C37.4502 30.6307 37.2043 31.3834 37.2435 32.1496L37.3235 33.7785C37.334 33.9896 37.2375 34.1917 37.0671 34.3154C36.8966 34.4406 36.6749 34.4693 36.4773 34.3938L34.9525 33.8132C34.2346 33.5417 33.4442 33.5417 32.7263 33.8132L31.2015 34.3938C31.0039 34.4693 30.7822 34.4406 30.6117 34.3154C30.4413 34.1917 30.3448 33.9896 30.3553 33.7785L30.4353 32.1496C30.4745 31.3834 30.2286 30.6307 29.749 30.0335L28.7249 28.762C28.5922 28.5976 28.5515 28.3774 28.6178 28.1768C28.6827 27.9762 28.8441 27.8224 29.0477 27.7666L30.6238 27.3397C31.3628 27.1391 32.0039 26.6746 32.4232 26.0321L33.316 24.6656Z" fill="#EB662B"/>
</g>
</g>
<defs>
<clipPath id="clip0_2103_2489">
<rect width="60" height="60" fill="white" transform="translate(0 0.130005)"/>
</clipPath>
<clipPath id="clip1_2103_2489">
<rect width="60" height="60" fill="white" transform="translate(0 0.130005)"/>
</clipPath>
</defs>
</svg>
